<svg width="28" height="28" viewBox="0 0 28 28" fill="none" xmlns="http://www.w3.org/2000/svg">
<path d="M27.3334 7.65319C27.3344 7.47772 27.3008 7.30377 27.2345 7.14132C27.1681 6.97887 27.0703 6.83111 26.9468 6.70653L21.2934 1.05319C21.1688 0.929618 21.0211 0.831851 20.8586 0.765498C20.6962 0.699145 20.5222 0.665512 20.3468 0.666526C20.1713 0.665512 19.9973 0.699145 19.8349 0.765498C19.6724 0.831851 19.5247 0.929618 19.4001 1.05319L15.6268 4.82653L1.05344 19.3999C0.929862 19.5244 0.832095 19.6722 0.765742 19.8347C0.699389 19.9971 0.665756 20.1711 0.66677 20.3465V25.9999C0.66677 26.3535 0.807246 26.6926 1.05729 26.9427C1.30734 27.1927 1.64648 27.3332 2.0001 27.3332H7.65344C7.84001 27.3433 8.02663 27.3142 8.2012 27.2475C8.37577 27.1809 8.53438 27.0784 8.66677 26.9465L23.1601 12.3732L26.9468 8.66653C27.0685 8.5373 27.1676 8.38857 27.2401 8.22653C27.2529 8.12025 27.2529 8.01281 27.2401 7.90653C27.2463 7.84446 27.2463 7.78192 27.2401 7.71986L27.3334 7.65319ZM7.10677 24.6665H3.33344V20.8932L16.5734 7.65319L20.3468 11.4265L7.10677 24.6665ZM22.2268 9.54653L18.4534 5.77319L20.3468 3.89319L24.1068 7.65319L22.2268 9.54653Z" fill="white"/>
</svg>
