<svg width="31" height="31" viewBox="0 0 31 31" fill="none" xmlns="http://www.w3.org/2000/svg">
<path d="M26.5 15.5V29.25H4.5V15.5M15.5 29.25V8.625M15.5 8.625H9.3125C8.40082 8.625 7.52648 8.26284 6.88182 7.61818C6.23716 6.97352 5.875 6.09918 5.875 5.1875C5.875 4.27582 6.23716 3.40148 6.88182 2.75682C7.52648 2.11216 8.40082 1.75 9.3125 1.75C14.125 1.75 15.5 8.625 15.5 8.625ZM15.5 8.625H21.6875C22.5992 8.625 23.4735 8.26284 24.1182 7.61818C24.7628 6.97352 25.125 6.09918 25.125 5.1875C25.125 4.27582 24.7628 3.40148 24.1182 2.75682C23.4735 2.11216 22.5992 1.75 21.6875 1.75C16.875 1.75 15.5 8.625 15.5 8.625ZM1.75 8.625H29.25V15.5H1.75V8.625Z" stroke="white" stroke-width="2" stroke-linecap="round" stroke-linejoin="round"/>
</svg>
