<svg width="27" height="28" viewBox="0 0 27 28" fill="none" xmlns="http://www.w3.org/2000/svg">
<path d="M7.33333 19.3332C7.86377 19.3332 8.37247 19.1225 8.74755 18.7474C9.12262 18.3723 9.33333 17.8636 9.33333 17.3332C9.33984 17.2667 9.33984 17.1997 9.33333 17.1332L13.0533 13.4132H13.36H13.6667L15.8133 15.5598C15.8133 15.5598 15.8133 15.6265 15.8133 15.6665C15.8133 16.1969 16.024 16.7056 16.3991 17.0807C16.7742 17.4558 17.2829 17.6665 17.8133 17.6665C18.3438 17.6665 18.8525 17.4558 19.2275 17.0807C19.6026 16.7056 19.8133 16.1969 19.8133 15.6665V15.5598L24.6667 10.6665C25.0622 10.6665 25.4489 10.5492 25.7778 10.3294C26.1067 10.1097 26.363 9.79732 26.5144 9.43187C26.6658 9.06642 26.7054 8.66429 26.6282 8.27632C26.5511 7.88836 26.3606 7.532 26.0809 7.25229C25.8012 6.97259 25.4448 6.7821 25.0568 6.70493C24.6689 6.62776 24.2668 6.66737 23.9013 6.81874C23.5358 6.97012 23.2235 7.22647 23.0037 7.55536C22.784 7.88426 22.6667 8.27094 22.6667 8.6665C22.6602 8.73301 22.6602 8.8 22.6667 8.8665L17.8533 13.6798H17.64L15.3333 11.3332C15.3333 10.8027 15.1226 10.294 14.7475 9.91896C14.3725 9.54388 13.8638 9.33317 13.3333 9.33317C12.8029 9.33317 12.2942 9.54388 11.9191 9.91896C11.544 10.294 11.3333 10.8027 11.3333 11.3332L7.33333 15.3332C6.8029 15.3332 6.29419 15.5439 5.91912 15.919C5.54405 16.294 5.33333 16.8027 5.33333 17.3332C5.33333 17.8636 5.54405 18.3723 5.91912 18.7474C6.29419 19.1225 6.8029 19.3332 7.33333 19.3332ZM25.3333 24.6665H2.66667V1.99984C2.66667 1.64622 2.52619 1.30708 2.27614 1.05703C2.02609 0.80698 1.68696 0.666504 1.33333 0.666504C0.979711 0.666504 0.640573 0.80698 0.390524 1.05703C0.140476 1.30708 0 1.64622 0 1.99984V25.9998C0 26.3535 0.140476 26.6926 0.390524 26.9426C0.640573 27.1927 0.979711 27.3332 1.33333 27.3332H25.3333C25.687 27.3332 26.0261 27.1927 26.2761 26.9426C26.5262 26.6926 26.6667 26.3535 26.6667 25.9998C26.6667 25.6462 26.5262 25.3071 26.2761 25.057C26.0261 24.807 25.687 24.6665 25.3333 24.6665Z" fill="white"/>
</svg>
