<svg width="32" height="32" viewBox="0 0 32 32" fill="none" xmlns="http://www.w3.org/2000/svg">
<path d="M21.3333 18.6665H10.6667C10.313 18.6665 9.97391 18.807 9.72386 19.057C9.47381 19.3071 9.33333 19.6462 9.33333 19.9998C9.33333 20.3535 9.47381 20.6926 9.72386 20.9426C9.97391 21.1927 10.313 21.3332 10.6667 21.3332H21.3333C21.687 21.3332 22.0261 21.1927 22.2761 20.9426C22.5262 20.6926 22.6667 20.3535 22.6667 19.9998C22.6667 19.6462 22.5262 19.3071 22.2761 19.057C22.0261 18.807 21.687 18.6665 21.3333 18.6665ZM21.3333 13.3332H13.3333C12.9797 13.3332 12.6406 13.4736 12.3905 13.7237C12.1405 13.9737 12 14.3129 12 14.6665C12 15.0201 12.1405 15.3593 12.3905 15.6093C12.6406 15.8594 12.9797 15.9998 13.3333 15.9998H21.3333C21.687 15.9998 22.0261 15.8594 22.2761 15.6093C22.5262 15.3593 22.6667 15.0201 22.6667 14.6665C22.6667 14.3129 22.5262 13.9737 22.2761 13.7237C22.0261 13.4736 21.687 13.3332 21.3333 13.3332ZM26.6667 5.33317H22.6667V3.99984C22.6667 3.64622 22.5262 3.30708 22.2761 3.05703C22.0261 2.80698 21.687 2.6665 21.3333 2.6665C20.9797 2.6665 20.6406 2.80698 20.3905 3.05703C20.1405 3.30708 20 3.64622 20 3.99984V5.33317H17.3333V3.99984C17.3333 3.64622 17.1929 3.30708 16.9428 3.05703C16.6928 2.80698 16.3536 2.6665 16 2.6665C15.6464 2.6665 15.3072 2.80698 15.0572 3.05703C14.8071 3.30708 14.6667 3.64622 14.6667 3.99984V5.33317H12V3.99984C12 3.64622 11.8595 3.30708 11.6095 3.05703C11.3594 2.80698 11.0203 2.6665 10.6667 2.6665C10.313 2.6665 9.97391 2.80698 9.72386 3.05703C9.47381 3.30708 9.33333 3.64622 9.33333 3.99984V5.33317H5.33333C4.97971 5.33317 4.64057 5.47365 4.39052 5.7237C4.14048 5.97374 4 6.31288 4 6.6665V25.3332C4 26.394 4.42143 27.4115 5.17157 28.1616C5.92172 28.9117 6.93913 29.3332 8 29.3332H24C25.0609 29.3332 26.0783 28.9117 26.8284 28.1616C27.5786 27.4115 28 26.394 28 25.3332V6.6665C28 6.31288 27.8595 5.97374 27.6095 5.7237C27.3594 5.47365 27.0203 5.33317 26.6667 5.33317ZM25.3333 25.3332C25.3333 25.6868 25.1929 26.0259 24.9428 26.276C24.6928 26.526 24.3536 26.6665 24 26.6665H8C7.64638 26.6665 7.30724 26.526 7.05719 26.276C6.80714 26.0259 6.66667 25.6868 6.66667 25.3332V7.99984H9.33333V9.33317C9.33333 9.68679 9.47381 10.0259 9.72386 10.276C9.97391 10.526 10.313 10.6665 10.6667 10.6665C11.0203 10.6665 11.3594 10.526 11.6095 10.276C11.8595 10.0259 12 9.68679 12 9.33317V7.99984H14.6667V9.33317C14.6667 9.68679 14.8071 10.0259 15.0572 10.276C15.3072 10.526 15.6464 10.6665 16 10.6665C16.3536 10.6665 16.6928 10.526 16.9428 10.276C17.1929 10.0259 17.3333 9.68679 17.3333 9.33317V7.99984H20V9.33317C20 9.68679 20.1405 10.0259 20.3905 10.276C20.6406 10.526 20.9797 10.6665 21.3333 10.6665C21.687 10.6665 22.0261 10.526 22.2761 10.276C22.5262 10.0259 22.6667 9.68679 22.6667 9.33317V7.99984H25.3333V25.3332Z" fill="white"/>
</svg>
